<svg width="547" height="358" viewBox="0 0 547 358" fill="none" xmlns="http://www.w3.org/2000/svg">
<g clip-path="url(#clip0_3_19)">
<path d="M504.688 172.869H61.1313C55.1859 172.869 50.3489 168.036 50.3489 162.093V10.7753C50.3489 4.83378 55.1859 0 61.1313 0H504.688C510.633 0 515.47 4.83378 515.47 10.7753V162.093C515.47 168.036 510.633 172.869 504.688 172.869ZM61.1313 1.28466C55.8948 1.28466 51.6344 5.54228 51.6344 10.7753V162.093C51.6344 167.327 55.8948 171.585 61.1313 171.585H504.688C509.924 171.585 514.185 167.327 514.185 162.093V10.7753C514.185 5.54228 509.924 1.28466 504.688 1.28466H61.1313Z" fill="#00BFA6"/>
<path d="M547 353.639H0V354.72H547V353.639Z" fill="#E6E6E6"/>
<path d="M547 298.398H0V299.479H547V298.398Z" fill="#E6E6E6"/>
<path d="M249.283 178.434C249.676 183.367 252.541 187.163 255.683 186.913C258.824 186.663 261.052 182.461 260.658 177.526C260.528 175.553 259.927 173.639 258.905 171.946L256.976 151.065L247.191 152.179L250.131 172.645C249.39 174.479 249.099 176.464 249.283 178.434Z" fill="#FFB6B6"/>
<path d="M237.593 81.019C237.593 81.019 246.741 76.1798 251.379 83.4114C256.018 90.6431 259.219 168.855 259.219 168.855L246.363 170.226L243.926 115.113L237.593 81.019V81.019Z" fill="#E6E6E6"/>
<path d="M218.607 294.318L226.055 294.317L229.598 265.609L218.606 265.609L218.607 294.318Z" fill="#FFB6B6"/>
<path d="M244.124 294.149C244.356 294.539 244.479 295.799 244.479 296.253C244.479 297.648 243.347 298.779 241.951 298.779H218.886C217.934 298.779 217.161 298.008 217.161 297.056V296.096C217.161 296.096 216.02 293.212 218.37 289.657C218.37 289.657 221.289 292.441 225.652 288.081L226.938 285.752L236.251 292.558L241.413 293.193C242.542 293.332 243.543 293.171 244.124 294.149H244.124H244.124Z" fill="#2F2E41"/>
<path d="M261.706 293.086L268.922 291.243L265.245 262.551L254.595 265.271L261.706 293.086Z" fill="#FFB6B6"/>
<path d="M286.388 286.611C286.709 286.932 287.14 288.122 287.252 288.562C287.597 289.913 286.781 291.289 285.428 291.634L263.081 297.339C262.158 297.575 261.219 297.018 260.984 296.096L260.746 295.166C260.746 295.166 258.926 292.654 260.322 288.629C260.322 288.629 263.84 290.603 266.987 285.3L267.657 282.725L278.365 287.016L283.524 286.355C284.652 286.21 285.583 285.807 286.388 286.611H286.388Z" fill="#2F2E41"/>
<path d="M212.446 74.8475L212.093 72.2865L216.29 62.0427L227.821 60.7622L230.311 75.4276L212.446 74.8475Z" fill="#FFB6B6"/>
<path opacity="0.1" d="M212.446 74.8475L212.093 72.2865L216.29 62.0427L227.821 60.7622L230.311 75.4276L212.446 74.8475Z" fill="black"/>
<path d="M198.992 147.195L193.867 161.28L197.711 168.963L216.93 280.365H229.708L227.181 181.768L256.651 280.365H269.298L259.128 213.78L251.526 152.317L246.915 149.47L224.618 136.951L198.992 147.195Z" fill="#2F2E41"/>
<path d="M231.665 156.798L223.978 158.079L213.727 133.75H236.791L231.665 156.798Z" fill="#E6E6E6"/>
<path d="M247.041 150.396L231.665 156.798L226.54 145.274L223.978 158.079L197.07 149.423L200.914 133.75L197.07 82.5304L210.639 73.4901L212.446 72.2865L229.103 73.567L230.563 74.3609L240.635 79.9694L243.197 122.225L247.041 150.396Z" fill="#2F2E41"/>
<path d="M230.563 74.3609L223.337 104.939L210.639 73.4901L212.446 72.2865L229.103 73.567L230.563 74.3609Z" fill="#E6E6E6"/>
<path d="M218.212 72.2865L215.649 76.6971L218.212 78.1673L216.93 105.018L222.055 111.981L227.181 101.69L223.337 78.1673L224.618 72.2865H218.212Z" fill="#2F2E41"/>
<path d="M222.055 69.7256C228.778 69.7256 234.228 64.2793 234.228 57.561C234.228 50.8427 228.778 45.3965 222.055 45.3965C215.333 45.3965 209.883 50.8427 209.883 57.561C209.883 64.2793 215.333 69.7256 222.055 69.7256Z" fill="#FFB6B6"/>
<path d="M214.276 58.6281L216.907 59.7752L218.054 52.8926C218.054 52.8926 222.646 50.5984 226.089 51.7455C229.533 52.8926 235.272 51.7455 235.272 51.7455C235.272 51.7455 235.272 40.2745 227.237 40.2745C219.202 40.2745 211.167 41.4216 211.167 44.8629C211.167 48.3042 207.724 51.7455 207.724 51.7455C207.724 51.7455 203.132 58.6281 207.724 63.2165C212.315 67.8049 214.611 67.8049 214.611 67.8049L214.276 58.6281Z" fill="#2F2E41"/>
<path d="M190.657 178.074C190.524 183.021 192.97 187.1 196.12 187.184C199.27 187.268 201.931 183.327 202.064 178.378C202.144 176.402 201.75 174.436 200.914 172.643L201.214 151.676L191.366 151.745L192.115 172.408C191.183 174.153 190.683 176.096 190.657 178.074V178.074Z" fill="#FFB6B6"/>
<path d="M202.842 79.9454C202.842 79.9454 194.514 77.3845 190.67 85.0673C186.826 92.7502 191.951 170.86 191.951 170.86H204.88L201.449 115.799L202.842 79.9454V79.9454Z" fill="#E6E6E6"/>
<path d="M522.333 225.463L491.275 215.961C490.588 215.751 489.867 215.674 489.151 215.735L331.741 229.123C329.497 229.314 328.933 232.339 330.958 233.325L336 235.78H335.865V353.295H340.616V238.028L356.419 245.721C357.628 246.31 358.977 246.55 360.315 246.415L361.997 246.245V353.295H366.748V245.766L488.497 233.476V353.295H493.248V232.996L513.441 230.958V353.295H518.192V230.478L521.876 230.106C524.462 229.845 524.819 226.223 522.333 225.463H522.333Z" fill="#3F3D56"/>
<path d="M377.438 228.658C380.408 228.658 424.356 223.316 424.356 223.316L430.889 232.219L385.159 241.121L377.438 228.658Z" fill="white"/>
<path d="M425.672 348.731L418.037 348.717L414.455 319.279L425.724 319.299L425.672 348.731Z" fill="#A0616A"/>
<path d="M399.512 348.513C399.274 348.913 399.146 350.204 399.145 350.669C399.143 352.1 400.301 353.261 401.732 353.264L425.379 353.304C426.355 353.306 427.148 352.516 427.15 351.54L427.151 350.557C427.151 350.557 428.326 347.602 425.924 343.953C425.924 343.953 422.926 346.802 418.461 342.324L417.146 339.934L407.587 346.896L402.294 347.538C401.136 347.678 400.11 347.512 399.512 348.513H399.512L399.512 348.513Z" fill="#2F2E41"/>
<path d="M466.652 335.042L460.628 339.582L440.234 318.523L449.125 311.821L466.652 335.042Z" fill="#A0616A"/>
<path d="M445.911 350.464C445.961 350.921 446.631 352.015 446.909 352.382C447.76 353.51 449.366 353.735 450.495 352.884L469.151 338.82C469.921 338.239 470.075 337.144 469.494 336.374L468.908 335.598C468.908 335.598 468.069 332.57 463.999 331.127C463.999 331.127 463.337 335.159 457.147 334.292L454.684 333.193L451.307 344.377L447.52 348.038C446.691 348.839 445.784 349.319 445.911 350.464L445.911 350.464Z" fill="#2F2E41"/>
<path d="M450.695 182.897C450.695 189.933 444.987 195.637 437.945 195.637C430.904 195.637 425.196 189.933 425.196 182.897C425.196 175.86 430.904 170.156 437.945 170.156C444.987 170.156 450.695 175.86 450.695 182.897Z" fill="#A0616A"/>
<path d="M449.493 256.358C449.493 256.358 402.552 253.702 399.895 259.013C397.238 264.324 414.26 337.27 414.26 337.27L429.446 334.09L422.037 282.911C422.037 282.911 461.209 293.278 466.523 280.887C471.837 268.495 470.307 263.881 470.307 263.881L449.493 256.358Z" fill="#2F2E41"/>
<path d="M461.52 247.444C461.52 247.444 415.549 257.292 414.392 263.116C413.235 268.94 448.96 334.788 448.96 334.788L462.763 327.706L442.071 280.309C442.071 280.309 482.591 279.952 484.436 266.597C486.28 253.242 483.584 249.197 483.584 249.197L461.52 247.444Z" fill="#2F2E41"/>
<path d="M466.764 197.498H444.678L429.566 222.281C429.566 222.281 426.023 238.297 429.566 240.025C433.108 241.754 433.108 260.341 433.108 260.341L470.307 263.881C470.307 263.881 475.621 208.12 473.85 202.809C472.078 197.498 466.764 197.498 466.764 197.498Z" fill="#00BFA6"/>
<path d="M431.78 213.873L429.566 240.025L404.661 229.462L398.717 226.475C397.553 224.958 396.042 223.741 394.311 222.927C390.006 220.831 385.436 221.35 384.101 224.087C382.767 226.824 385.173 230.741 389.477 232.836C391.185 233.698 393.075 234.137 394.989 234.119L412.38 243.99L412.401 243.951L412.478 244.089L439.751 255.473L446.026 221.141L431.78 213.873H431.78Z" fill="#A0616A"/>
<path d="M429.123 184.664C429.123 184.664 415.838 186.435 421.152 174.928C421.152 174.928 420.341 168.691 424.289 168.269C428.237 167.847 433.551 160.767 433.551 160.767C433.551 160.767 445.735 154.571 452.042 160.767C458.35 166.962 476.95 203.252 476.95 203.252L464.55 216.528C464.55 216.528 457.096 196.944 448.423 199.213C439.751 201.481 431.78 208.245 431.78 208.245C431.78 208.245 422.979 203.844 426.936 200.007C430.894 196.171 429.123 184.664 429.123 184.664Z" fill="#2F2E41"/>
<path d="M446.836 204.137C446.836 204.137 440.637 196.171 436.208 202.366C431.78 208.562 428.237 216.528 428.237 216.528L445.951 222.724L446.836 204.137H446.836Z" fill="#00BFA6"/>
<path d="M514.092 351.533L493.512 286.163L493.515 286.163H493.563L493.48 286.056L493.478 286.054L492.012 281.398L492.013 281.397C494.246 279.474 495.766 276.726 496.069 273.563L486.662 221.856C487.309 215.066 482.101 209.131 475.277 208.888L454.051 208.834C448.017 208.621 442.791 212.977 441.912 218.948L441.442 222.117L434.939 266.328C434.702 267.918 434.797 269.485 435.171 270.951L430.491 271.563L429.071 271.753L423.459 272.483L423.441 272.488L422.741 272.578H421.98V291.57H422.028V352.274C422.028 352.666 422.349 352.986 422.741 352.986C423.138 352.986 423.459 352.666 423.459 352.274V291.57H431.786L440.094 352.203C440.148 352.559 440.451 352.82 440.807 352.82C440.837 352.82 440.872 352.82 440.902 352.814C441.294 352.761 441.567 352.399 441.514 352.007L433.235 291.57H473.186C477.153 291.57 480.829 290.312 483.822 288.158L499.662 352.092C499.745 352.415 500.036 352.63 500.355 352.63C500.413 352.63 500.473 352.623 500.532 352.608C500.915 352.511 501.146 352.122 501.049 351.739L485.055 287.187C485.268 287.01 485.481 286.821 485.682 286.626L492.041 286.252L512.728 351.962C512.824 352.268 513.106 352.463 513.41 352.463C513.481 352.463 513.553 352.452 513.625 352.43C514.002 352.311 514.211 351.91 514.092 351.533ZM490.653 282.412C490.706 282.382 490.754 282.347 490.801 282.317L490.802 282.317L490.954 282.802L490.653 282.412Z" fill="#E6E6E6"/>
<path d="M110.273 240.729L124.124 231.926L129.755 235.321L110.273 257.692V240.729Z" fill="#FFB6B6"/>
<path d="M91.3327 206.658C91.3327 206.658 82.1331 208.821 86.4623 221.26C90.7916 233.698 104.862 259.657 109.191 258.034C113.52 256.412 114.061 240.188 114.061 240.188C114.061 240.188 113.52 240.729 111.355 238.565C109.191 236.402 109.191 237.39 109.191 235.003C109.191 232.617 107.42 230.847 107.42 230.847L105.403 226.668C105.403 226.668 105.403 207.199 97.2854 206.117C89.1681 205.036 91.3327 206.658 91.3327 206.658L91.3327 206.658Z" fill="#E6E6E6"/>
<path d="M134.314 234.739C137.906 231.149 139.02 226.441 136.801 224.223C134.582 222.005 129.871 223.118 126.278 226.709C122.685 230.299 121.572 235.007 123.791 237.225C126.01 239.442 130.721 238.329 134.314 234.739Z" fill="#FFB6B6"/>
<path d="M55.5 278.315L64.951 293.948L120.028 290.691L105.362 271.801L55.5 278.315Z" fill="#E6E6E6"/>
<path d="M71.957 351.431C71.6362 351.431 71.3568 351.194 71.312 350.868L54.8543 230.748C54.8054 230.391 55.0549 230.063 55.4115 230.014C55.768 229.963 56.0967 230.215 56.1457 230.571L72.6035 350.691C72.6524 351.048 72.4029 351.376 72.0463 351.425C72.0162 351.429 71.9864 351.431 71.957 351.431Z" fill="#E6E6E6"/>
<path d="M55.5 351.584C55.14 351.584 54.8482 351.292 54.8482 350.932V230.683C54.8482 230.323 55.1401 230.031 55.5 230.031C55.8599 230.031 56.1518 230.323 56.1518 230.683V350.932C56.1518 351.292 55.8599 351.584 55.5 351.584Z" fill="#E6E6E6"/>
<path d="M138.115 351.106C137.838 351.106 137.581 350.927 137.493 350.649L98.5485 226.947C98.4404 226.604 98.6312 226.238 98.9746 226.13C99.3179 226.022 99.684 226.213 99.7919 226.556L138.737 350.258C138.845 350.601 138.654 350.967 138.31 351.075C138.245 351.096 138.179 351.106 138.115 351.106Z" fill="#E6E6E6"/>
<path d="M126.219 351.258C125.928 351.258 125.663 351.062 125.588 350.767L98.5384 241.591C98.4498 241.242 98.6606 240.888 99.0094 240.799C99.3594 240.711 99.7131 240.921 99.8019 241.27L126.851 350.446C126.94 350.794 126.729 351.149 126.38 351.238C126.326 351.252 126.272 351.258 126.219 351.258H126.219Z" fill="#E6E6E6"/>
<path d="M55.5 232.598L100.637 231.905L108.947 279.292H56.1518L55.5 232.598Z" fill="#E6E6E6"/>
<path d="M124.864 302.278L113.489 322.292L126.696 325.198L132.203 310.963L124.864 302.278Z" fill="#FFB6B6"/>
<path d="M117.574 318.513C117.574 318.513 117.132 315.249 114.534 316.285C111.935 317.321 104.435 321.17 104.435 321.17C104.435 321.17 123.997 352.934 127.709 351.454C131.421 349.974 126.977 340.996 126.977 340.996L127.958 325.125L117.574 318.513H117.574Z" fill="#2F2E41"/>
<path d="M74.5569 263.442C74.5569 263.442 70.4982 282.1 82.9448 288.59C95.3914 295.079 137.872 279.126 137.872 279.126L118.39 308.297L131.919 313.737C131.919 313.737 162.765 273.177 160.601 266.687C158.436 260.198 143.825 259.657 143.825 259.657L110.814 261.279L102.156 258.575L74.5569 263.442H74.5569Z" fill="#2F2E41"/>
<path d="M108.035 311.16L90.1523 325.666L101.396 333.175L111.708 321.919L108.035 311.16Z" fill="#FFB6B6"/>
<path d="M95.3337 323.632C95.3337 323.632 96.1104 320.431 93.3128 320.451C90.5152 320.471 82.1281 321.329 82.1281 321.329C82.1281 321.329 88.7824 358.028 92.779 358C96.7755 357.972 95.9056 347.992 95.9056 347.992L102.598 333.566L95.3337 323.632Z" fill="#2F2E41"/>
<path d="M75.3178 256.693C75.3178 256.693 64.7437 272.596 73.974 283.167C83.2043 293.738 128.582 294.326 128.582 294.326L99.8138 314.413L110.434 324.4C110.434 324.4 153.934 297.837 154.281 291.005C154.628 284.173 141.215 278.356 141.215 278.356L109.877 267.863L102.797 262.196L75.3178 256.693H75.3178Z" fill="#2F2E41"/>
<path d="M102.482 219.859C102.482 219.859 92.1998 216.074 87.3294 216.074C86.864 216.074 86.4041 216.128 85.9441 216.225C82.827 216.885 79.9589 219.562 78.5844 221.022C78.0486 221.595 77.7402 221.979 77.7402 221.979C77.7402 221.979 77.7727 221.606 77.8376 220.952C78.1569 217.512 79.3366 206.226 81.4525 199C82.2101 196.421 83.0814 194.36 84.0825 193.36C86.4149 191.024 87.4918 188.222 87.9896 186.135C88.4117 184.345 88.4117 183.085 88.4117 183.085L84.4667 181.386L83.7362 176.617C83.6063 177.179 83.0056 178.277 80.9871 180.381C80.8139 180.559 80.6245 180.71 80.4243 180.84C77.5129 182.668 71.5764 179.488 68.3782 177.487C69.7094 172.863 72.123 168.634 76.5063 167.942C86.7883 166.32 86.7883 160.371 93.2821 166.861C93.8179 167.396 94.359 167.91 94.9002 168.407C96.9782 172.377 97.7358 177.698 98.0064 181.397C98.2013 183.988 98.1525 185.789 98.1525 185.789C98.1525 185.789 100.858 202.013 105.188 205.258C109.517 208.502 102.482 219.859 102.482 219.859Z" fill="#2F2E41"/>
<path d="M82.4591 193.901L75.1471 204.619L91.6587 209.043V193.901H82.4591Z" fill="#FFB6B6"/>
<path opacity="0.1" d="M82.4591 193.901L75.1471 204.619L91.6587 209.043V193.901H82.4591Z" fill="black"/>
<path d="M92.6856 204.225L76.9921 197.735C76.9921 197.735 55.8871 206.929 57.5105 224.775C59.134 242.621 74.2863 273.447 74.2863 273.447L104.591 260.468L101.344 225.857L92.6856 204.225Z" fill="#E6E6E6"/>
<path d="M85.9569 198.686C93.6035 198.686 99.8024 192.491 99.8024 184.849C99.8024 177.208 93.6035 171.013 85.9569 171.013C78.3103 171.013 72.1115 177.208 72.1115 184.849C72.1115 192.491 78.3103 198.686 85.9569 198.686Z" fill="#FFB6B6"/>
<path d="M104.646 179.84C101.941 182.544 99.776 185.248 99.776 185.248L98.6937 180.921C98.6937 180.921 98.4447 181.105 98.0064 181.397C96.2909 182.565 91.6857 185.502 87.9896 186.135C86.3445 186.416 84.8834 186.237 83.931 185.248C81.9125 183.144 81.3118 182.046 81.1819 181.484L80.4513 186.254L76.5063 187.952C76.5063 187.952 76.5063 193.89 80.8356 198.227C81.0466 198.438 81.2523 198.698 81.4525 199C83.5197 202.115 85.0025 209.741 85.944 216.225C86.7774 221.99 87.1779 226.846 87.1779 226.846C87.1779 226.846 83.0814 221.72 78.5844 221.022C78.3354 220.984 78.0865 220.957 77.8376 220.952C77.7564 220.941 77.6698 220.941 77.5886 220.941C72.7182 220.941 62.4363 224.726 62.4363 224.726C62.4363 224.726 55.4013 213.37 59.7305 210.125C64.0598 206.88 66.7655 190.656 66.7655 190.656C66.7655 190.656 66.5869 183.712 68.3782 177.487C69.7094 172.863 72.123 168.634 76.5063 167.942C86.7883 166.32 86.7883 160.371 93.2821 166.86C93.8179 167.396 94.359 167.91 94.9002 168.407C100.95 173.967 107.13 177.357 104.646 179.84Z" fill="#2F2E41"/>
<path d="M43.9215 252.435H38.7795V353.923H43.9215V252.435Z" fill="#3F3D56"/>
<path d="M168.614 252.435H163.472V353.923H168.614V252.435Z" fill="#3F3D56"/>
<path d="M135.834 209.399H101.769V243.443H135.834V209.399Z" fill="#00BFA6"/>
<path d="M82.1331 245.596L95.9837 236.793L101.615 240.188L82.1331 262.559V245.596Z" fill="#FFB6B6"/>
<path d="M63.1927 211.525C63.1927 211.525 53.993 213.689 58.3223 226.127C62.6515 238.565 76.7215 264.524 81.0508 262.902C85.38 261.279 85.9212 245.055 85.9212 245.055C85.9212 245.055 85.38 245.596 83.2154 243.433C81.0508 241.269 81.0508 242.257 81.0508 239.871C81.0508 237.484 79.2803 235.715 79.2803 235.715L77.2627 231.535C77.2627 231.535 77.2627 212.066 69.1454 210.985C61.028 209.903 63.1927 211.525 63.1927 211.525H63.1927Z" fill="#E6E6E6"/>
<path d="M106.174 239.606C109.766 236.016 110.88 231.308 108.661 229.09C106.442 226.873 101.731 227.985 98.1379 231.576C94.5453 235.166 93.4317 239.874 95.6507 242.092C97.8697 244.31 102.581 243.197 106.174 239.606Z" fill="#FFB6B6"/>
<path d="M178.898 248.581H23.3535V260.143H178.898V248.581Z" fill="#3F3D56"/>
<path d="M336.931 156.086H313.959C312.138 156.086 310.662 157.561 310.662 159.381V168.849C310.662 170.669 312.138 172.144 313.959 172.144H336.931C338.752 172.144 340.228 170.669 340.228 168.849V159.381C340.228 157.561 338.752 156.086 336.931 156.086Z" fill="#3F3D56"/>
<path d="M385.137 165.554H362.165C360.344 165.554 358.868 167.029 358.868 168.849V168.849C358.868 170.669 360.344 172.144 362.165 172.144H385.137C386.958 172.144 388.434 170.669 388.434 168.849V168.849C388.434 167.029 386.958 165.554 385.137 165.554Z" fill="#00BFA6"/>
</g>
<defs>
<clipPath id="clip0_3_19">
<rect width="547" height="358" fill="white"/>
</clipPath>
</defs>
</svg>
